<svg xmlns="http://www.w3.org/2000/svg" width="1024" height="1024" viewBox="288 291 452 452">
<g>
<path d="M 0.00 0.00 L 1024.00 0.00 L 1024.00 1024.00 L 0.00 1024.00 ZM 488.50 581.11 C492.90,582.06 497.96,582.88 499.75,582.92 L 503.00 583.00 L 503.00 370.00 L 492.95 370.00 L 493.20 470.45 C493.33,525.69 493.23,571.09 492.97,571.32 C491.88,572.31 463.71,563.83 462.00,562.00 C461.73,561.71 457.67,559.23 453.00,556.49 C441.14,549.53 421.49,529.89 414.60,518.11 C388.10,472.76 394.48,416.32 430.23,379.83 C437.42,372.49 446.03,364.63 447.00,364.51 C447.27,364.48 450.65,362.57 454.50,360.28 C470.96,350.47 486.74,346.00 507.50,345.28 C530.47,344.48 542.87,347.01 562.50,356.49 C601.60,375.37 626.21,414.77 626.24,458.50 C626.26,500.81 603.84,538.66 566.32,559.64 C558.61,563.95 539.14,571.00 534.95,571.00 L 532.00 571.00 L 532.00 370.00 L 521.97 370.00 L 522.24 475.92 C522.38,534.17 522.81,582.15 523.20,582.53 C525.17,584.50 551.66,577.64 563.59,572.06 C589.44,559.98 613.23,536.29 624.62,511.32 C643.41,470.08 639.28,424.45 613.41,387.34 C606.36,377.22 594.17,364.40 587.77,360.36 C585.67,359.03 582.80,356.94 581.40,355.72 C575.05,350.19 559.56,343.22 543.00,338.46 C530.15,334.76 504.25,333.81 490.41,336.52 C464.47,341.61 445.65,351.39 426.68,369.65 C408.72,386.94 397.98,405.87 391.30,432.00 C388.94,441.23 388.61,444.44 388.61,458.50 C388.59,475.74 389.98,484.87 394.64,498.19 C397.70,506.96 403.00,518.25 406.43,523.30 C407.84,525.39 409.00,527.32 409.00,527.60 C409.00,529.02 420.77,542.50 428.35,549.77 C444.88,565.59 464.74,575.94 488.50,581.11 ZM 532.00 699.36 C535.48,700.48 547.27,699.91 550.75,698.46 C560.88,694.23 561.95,690.86 561.98,663.25 L 562.00 641.00 L 559.50 641.00 C557.39,641.00 557.00,641.47 557.00,644.00 C557.00,645.65 556.79,647.00 556.53,647.00 C556.27,647.00 554.04,645.58 551.57,643.84 C547.55,641.00 546.34,640.67 539.79,640.65 C531.80,640.61 528.30,641.92 523.80,646.66 C513.69,657.31 517.79,675.32 531.54,680.57 C537.65,682.90 547.00,681.96 551.97,678.52 C553.97,677.13 555.91,676.00 556.28,676.00 C557.29,676.00 555.91,685.12 554.46,688.00 C551.79,693.32 549.38,694.50 541.15,694.50 C535.09,694.50 532.48,694.00 528.60,692.09 C523.88,689.76 523.66,689.74 522.35,691.53 C521.61,692.55 521.00,693.67 521.00,694.02 C521.00,694.60 528.43,698.21 532.00,699.36 ZM 344.57 683.57 C351.20,686.01 361.51,683.52 366.20,678.34 C373.64,670.10 373.64,653.98 366.20,645.64 C360.16,638.88 343.92,638.20 338.03,644.47 C336.75,645.83 335.32,646.70 334.85,646.41 C334.38,646.12 334.00,640.51 334.00,633.94 L 334.00 622.00 L 328.00 622.00 L 328.00 684.00 L 331.00 684.00 C333.67,684.00 334.00,683.67 334.00,681.00 C334.00,677.44 334.24,677.38 337.86,680.06 C339.39,681.19 342.41,682.77 344.57,683.57 ZM 675.76 683.91 C682.18,685.42 690.51,683.56 695.49,679.49 C698.30,677.19 698.38,676.95 696.77,675.34 C695.17,673.74 694.77,673.81 689.94,676.44 C685.62,678.79 683.94,679.16 679.36,678.78 C671.72,678.15 666.87,674.04 664.54,666.25 L 663.87 664.00 L 700.00 664.00 L 700.00 659.97 C700.00,652.75 695.81,645.53 689.80,642.40 C688.24,641.59 684.17,641.00 680.18,641.00 C671.19,641.00 665.20,644.10 661.28,650.78 C657.47,657.28 657.53,666.81 661.41,673.44 C664.37,678.48 669.93,682.54 675.76,683.91 ZM 434.67 683.33 C435.03,683.70 436.38,684.00 437.67,684.00 C440.00,684.00 440.00,683.98 440.00,670.47 C440.00,655.55 440.93,651.77 445.51,648.17 C447.64,646.49 449.63,646.00 454.27,646.00 C459.85,646.00 460.50,646.25 463.63,649.57 L 467.00 653.14 L 467.00 682.96 L 469.55 683.60 C470.95,683.95 472.28,684.05 472.50,683.83 C472.73,683.60 472.98,676.39 473.05,667.80 C473.17,653.16 473.32,652.05 475.34,650.21 C476.53,649.13 478.48,647.74 479.68,647.12 C482.90,645.47 492.16,645.72 494.75,647.54 C498.59,650.22 499.95,657.43 499.29,671.48 L 498.70 684.00 L 505.13 684.00 L 504.82 667.07 C504.53,651.81 504.30,649.87 502.44,647.38 C499.11,642.92 495.80,641.00 490.37,640.36 C484.12,639.62 479.01,641.17 474.40,645.22 L 470.97 648.23 L 468.82 645.50 C464.01,639.38 454.63,638.31 445.64,642.85 L 440.00 645.69 L 440.00 642.85 C440.00,640.35 439.63,640.00 437.00,640.00 L 434.00 640.00 L 434.00 661.33 C434.00,673.07 434.30,682.97 434.67,683.33 ZM 584.50 683.50 C586.70,684.28 589.40,684.93 590.50,684.95 C594.23,685.02 599.93,682.93 602.97,680.37 L 606.00 677.82 L 606.00 680.91 C606.00,683.68 606.31,684.00 609.00,684.00 L 612.00 684.00 L 612.00 667.90 C612.00,649.85 611.07,646.23 605.58,642.89 C601.07,640.13 586.46,640.21 580.96,643.02 C576.65,645.22 576.37,645.76 578.25,648.33 C579.42,649.93 579.75,649.91 583.46,648.02 C588.56,645.42 598.46,645.25 602.03,647.69 C605.54,650.09 605.97,650.97 605.98,655.75 L 606.00 660.00 L 595.45 660.00 C580.41,660.00 576.00,662.76 576.00,672.17 C576.00,677.91 578.64,681.42 584.50,683.50 ZM 390.46 683.94 C396.97,685.83 404.57,684.30 408.32,680.34 C411.22,677.27 412.00,677.41 412.00,681.00 C412.00,683.53 412.39,684.00 414.50,684.00 L 417.00 684.00 L 417.00 667.75 C417.00,649.36 416.09,646.07 410.12,642.62 C405.09,639.71 393.61,639.90 386.99,643.00 C381.52,645.57 381.44,645.68 383.44,648.32 C384.77,650.07 384.97,650.06 388.87,648.07 C393.42,645.75 402.32,645.28 406.40,647.14 C409.29,648.45 412.27,654.05 411.81,657.29 C411.52,659.38 410.90,659.53 400.50,660.03 C388.03,660.62 384.02,662.13 382.01,666.97 C379.33,673.45 383.55,681.92 390.46,683.94 ZM 357.80 677.58 C354.43,679.35 347.49,679.35 343.42,677.58 C332.46,672.81 331.13,654.16 341.30,647.96 C345.30,645.52 354.77,645.31 359.13,647.57 C364.78,650.49 367.60,661.10 364.84,669.02 C363.39,673.17 361.28,675.75 357.80,677.58 M 548.79 675.10 C543.81,677.65 537.45,677.51 532.59,674.73 C526.51,671.25 524.49,667.84 524.53,661.08 C524.59,651.09 529.97,646.01 540.50,646.01 C548.30,646.01 552.42,648.44 555.17,654.66 C558.66,662.53 555.87,671.46 548.79,675.10 ZM 637.21 683.01 C642.23,685.29 642.37,685.30 647.21,683.96 C651.37,682.80 652.28,681.88 651.43,679.67 C650.97,678.48 649.71,678.28 645.55,678.71 C641.05,679.17 639.94,678.94 638.13,677.13 C636.15,675.15 636.00,673.96 636.00,660.00 L 636.00 645.00 L 642.50 645.00 C648.33,645.00 649.00,644.79 649.00,643.00 C649.00,641.27 648.33,641.00 644.08,641.00 C636.64,641.00 636.00,640.52 636.00,634.89 C636.00,630.12 635.92,630.00 633.00,630.00 C630.07,630.00 630.00,630.11 630.00,635.00 L 630.00 640.00 L 626.00 640.00 C622.40,640.00 622.00,640.25 622.00,642.50 C622.00,644.75 622.40,645.00 626.00,645.00 L 630.00 645.00 L 630.00 659.53 C630.00,677.19 630.91,680.15 637.21,683.01 ZM 511.68 550.27 C513.67,553.62 514.00,542.61 514.00,472.94 C514.00,404.37 513.83,396.00 512.46,396.00 C511.09,396.00 510.94,404.28 511.08,472.75 C511.16,514.96 511.44,549.84 511.68,550.27 ZM 694.44 657.75 L 695.13 660.00 L 680.13 660.00 C671.87,660.00 664.93,659.66 664.71,659.25 C663.79,657.57 666.13,652.25 669.01,649.49 C671.65,646.96 672.99,646.51 678.78,646.19 C684.52,645.86 685.90,646.13 688.27,647.99 C691.03,650.17 693.12,653.48 694.44,657.75 ZM 404.31 678.51 C394.19,682.74 383.71,676.02 387.98,668.04 C389.44,665.31 394.37,664.00 403.15,664.00 L 411.00 664.00 L 411.00 668.28 C411.00,673.50 409.00,676.55 404.31,678.51 ZM 598.62 678.09 C593.87,680.24 591.85,680.35 587.01,678.69 C582.31,677.09 580.09,672.71 582.13,669.07 C584.34,665.15 587.67,664.03 597.25,664.01 L 606.00 664.00 L 606.00 667.78 C606.00,672.63 603.77,675.75 598.62,678.09 ZM 506.00 509.42 C506.00,523.61 506.39,534.00 506.91,534.00 C509.38,534.00 509.71,486.07 507.25,485.25 C506.27,484.92 506.00,490.19 506.00,509.42 Z" fill="rgb(40,40,40)"/>

<path d="M 513.34 544.80 C513.32,544.46 513.29,544.11 513.26,543.75 C512.98,540.59 512.36,538.00 511.88,538.00 C511.70,538.00 511.55,538.33 511.43,538.87 C511.27,525.18 511.13,500.56 511.08,472.75 C511.01,436.46 511.01,417.08 511.24,406.88 C511.40,407.94 511.73,407.26 512.54,405.50 C512.98,404.52 513.32,403.48 513.56,402.46 C513.94,411.04 514.00,430.41 514.00,472.94 C514.00,515.11 513.88,535.79 513.34,544.80 ZM 334.03 679.66 C334.01,680.04 334.00,680.48 334.00,681.00 C334.00,683.67 333.67,684.00 331.00,684.00 L 328.00 684.00 L 328.00 622.00 L 329.17 622.00 L 329.62 633.25 C329.87,639.44 329.99,645.17 329.90,646.00 C329.80,646.83 329.67,654.85 329.60,663.83 C329.52,675.55 329.82,680.44 330.70,681.16 C332.02,682.26 334.00,681.49 334.00,679.87 C334.00,679.81 334.01,679.74 334.03,679.66 ZM 488.50 581.11 C483.97,580.12 479.58,578.95 475.32,577.58 C479.59,578.95 483.98,580.11 488.50,581.07 C495.33,582.53 496.82,582.58 498.68,581.42 C500.36,580.36 500.96,580.33 501.35,581.28 C501.62,581.95 501.88,574.94 501.92,565.69 C501.97,554.72 501.65,549.10 501.00,549.50 C500.40,549.87 500.00,548.66 500.00,546.50 C500.00,544.51 500.39,543.12 500.86,543.41 C502.21,544.25 502.99,532.22 502.99,510.25 C503.00,498.37 502.61,490.00 502.07,490.00 C501.55,490.00 500.95,491.24 500.72,492.75 C500.46,494.46 500.24,493.72 500.15,490.78 C500.03,486.96 500.29,486.17 501.50,486.64 C502.82,487.15 503.00,480.29 503.00,428.61 L 503.00 583.00 L 499.75 582.92 C497.96,582.88 492.90,582.06 488.50,581.11 ZM 344.57 683.57 C342.41,682.77 339.39,681.19 337.86,680.06 C336.32,678.91 335.39,678.27 334.83,678.18 C335.66,677.07 336.89,675.93 337.46,675.96 C339.94,676.13 340.17,675.91 339.00,674.50 C337.68,672.91 335.50,672.39 336.43,673.89 C336.73,674.37 336.31,675.33 335.49,676.01 C333.64,677.55 333.54,676.01 335.34,673.55 C336.25,672.31 336.41,671.43 335.79,669.28 C337.24,672.93 339.81,676.01 343.42,677.58 C346.99,679.14 352.78,679.32 356.42,678.15 C354.04,679.24 351.44,680.00 349.60,680.00 C346.19,680.00 344.35,682.51 346.69,683.95 C346.91,684.08 347.15,684.19 347.42,684.29 C346.42,684.13 345.46,683.89 344.57,683.57 ZM 605.00 664.00 L 597.25 664.01 C589.11,664.03 585.48,664.83 583.22,667.48 C585.09,664.94 585.10,664.55 583.66,663.49 C582.76,662.84 582.36,661.95 582.77,661.52 C582.86,661.41 582.90,661.34 582.88,661.31 C585.84,660.37 589.93,660.00 595.45,660.00 L 606.00 660.00 L 599.75 660.12 C594.78,660.21 594.11,660.39 596.50,661.00 C598.15,661.42 599.05,661.88 598.50,662.02 C597.95,662.17 599.30,662.56 601.50,662.89 C603.43,663.19 604.44,663.39 605.00,664.00 ZM 584.50 683.50 C579.34,681.67 576.68,678.73 576.12,674.14 C576.26,675.25 576.57,676.00 577.06,676.00 C577.64,676.00 577.89,676.38 577.60,676.83 C577.32,677.29 577.70,677.67 578.45,677.67 C579.25,677.67 579.57,677.05 579.23,676.17 C578.92,675.35 579.07,674.93 579.58,675.24 C580.09,675.55 580.57,674.67 580.65,673.28 C580.70,672.42 581.14,671.14 581.75,669.88 C580.43,673.34 582.66,677.20 587.01,678.69 C591.85,680.35 593.87,680.24 598.62,678.09 C601.20,676.91 603.05,675.54 604.25,673.86 C603.12,676.17 601.58,677.99 600.31,677.99 C598.75,678.00 597.71,679.73 598.50,681.00 C598.92,681.69 599.84,682.01 600.64,681.97 C598.38,683.26 595.60,684.27 593.13,684.71 C593.78,684.55 594.42,684.31 595.03,683.98 C598.32,682.22 596.28,680.00 591.36,680.00 C588.92,680.00 585.71,679.28 584.21,678.39 C581.62,676.86 581.59,676.87 583.50,678.51 C585.01,679.81 585.17,680.35 584.15,680.73 C583.24,681.07 583.72,681.83 585.65,683.11 C587.48,684.31 589.36,684.93 591.18,684.94 C590.95,684.95 590.72,684.95 590.50,684.95 C589.40,684.93 586.70,684.28 584.50,683.50 ZM 434.27 678.74 C434.11,674.68 434.00,668.33 434.00,661.33 L 434.00 640.00 L 437.00 640.00 C439.63,640.00 440.00,640.35 440.00,642.85 L 440.00 645.69 L 444.79 643.28 C443.57,644.01 442.65,644.79 442.23,645.55 C440.96,647.82 439.00,646.54 439.00,643.44 C439.00,641.69 438.45,641.00 437.06,641.00 C435.74,641.00 435.17,641.64 435.27,643.00 C435.36,644.10 435.78,645.00 436.21,645.00 C436.65,645.00 437.00,646.60 437.00,648.56 C437.00,650.80 436.61,651.88 435.95,651.47 C435.23,651.02 434.94,654.43 435.05,662.16 C435.14,668.40 434.89,675.18 434.49,677.24 C434.40,677.73 434.33,678.24 434.27,678.74 ZM 406.30 677.52 C409.57,675.55 411.00,672.69 411.00,668.28 L 411.00 664.00 L 403.15 664.00 C397.90,664.00 394.03,664.47 391.45,665.43 C392.04,665.09 392.65,664.77 393.24,664.50 C395.30,663.55 396.75,662.41 396.47,661.96 C396.19,661.51 397.21,660.95 398.73,660.72 C400.14,660.51 399.56,660.30 397.42,660.20 C398.39,660.14 399.41,660.08 400.50,660.03 C408.64,659.64 410.79,659.46 411.48,658.40 C410.95,659.34 409.76,659.73 407.00,660.10 C403.19,660.61 403.01,660.72 405.81,660.85 C407.63,660.93 408.87,661.40 408.57,661.89 C408.27,662.37 408.98,663.02 410.15,663.33 C412.01,663.81 412.21,664.41 411.73,667.98 C411.09,672.72 409.55,675.67 406.30,677.52 ZM 601.98 681.12 C601.99,681.07 602.00,681.01 602.00,680.94 C602.00,680.36 601.44,680.17 600.75,680.52 C600.06,680.87 600.58,680.20 601.90,679.04 C604.76,676.53 606.25,676.81 607.00,680.00 C607.50,682.11 607.75,681.89 609.39,677.93 C610.99,674.04 611.89,666.51 611.90,659.88 C611.97,662.19 612.00,664.84 612.00,667.90 L 612.00 684.00 L 609.00 684.00 C606.31,684.00 606.00,683.68 606.00,680.91 L 606.00 677.82 L 602.97 680.37 C602.66,680.63 602.33,680.88 601.98,681.12 ZM 476.18 649.50 C479.58,646.56 481.35,643.33 479.98,642.49 C479.41,642.14 479.01,642.22 479.09,642.68 C479.46,644.78 478.84,645.81 476.91,646.31 C474.86,646.85 474.86,646.82 476.66,644.76 C478.86,642.25 476.67,643.25 473.27,646.31 L 471.04 648.32 L 470.97 648.23 L 474.40 645.22 C479.01,641.17 484.12,639.62 490.37,640.36 C490.44,640.37 490.51,640.37 490.57,640.38 C488.19,640.27 486.24,640.94 485.62,642.54 C485.32,643.34 484.26,644.03 483.28,644.07 C480.01,644.20 485.12,645.85 489.03,645.93 C490.64,645.96 492.05,646.27 493.29,646.86 C489.66,645.69 482.44,645.70 479.68,647.12 C478.74,647.61 477.32,648.58 476.18,649.50 ZM 630.01 633.10 L 630.16 635.34 C630.42,639.47 630.09,641.10 628.67,642.59 C627.07,644.26 627.04,644.54 628.42,644.82 C628.57,644.85 628.71,644.91 628.84,645.00 L 626.00 645.00 C622.40,645.00 622.00,644.75 622.00,642.50 C622.00,640.25 622.40,640.00 626.00,640.00 L 630.00 640.00 L 630.00 635.00 C630.00,634.26 630.00,633.64 630.01,633.10 ZM 666.96 664.00 C667.78,663.96 668.84,663.94 670.18,663.93 C675.56,663.87 682.53,662.43 679.50,662.00 C678.95,661.92 679.40,661.47 680.50,661.00 C681.83,660.43 679.59,660.12 673.81,660.07 C669.03,660.03 664.93,659.66 664.71,659.25 C664.93,659.66 671.87,660.00 680.13,660.00 L 689.58 660.00 C684.12,660.00 684.05,660.03 685.73,662.00 C687.11,663.61 688.68,664.00 693.72,664.00 ZM 499.33 679.41 C499.66,680.28 500.80,681.00 501.84,681.00 C503.75,681.00 504.68,678.60 504.92,672.62 L 505.13 684.00 L 498.70 684.00 L 499.09 675.74 C499.08,677.62 499.16,678.99 499.33,679.41 ZM 390.46 683.94 C387.55,683.09 385.11,681.10 383.47,678.59 C383.92,679.19 384.42,679.74 384.98,680.25 C388.61,683.52 389.00,683.61 388.51,681.06 C388.24,679.64 388.56,679.28 389.68,679.71 C390.98,680.21 391.05,679.96 390.11,678.21 C389.49,677.05 388.54,675.83 387.99,675.50 C387.34,675.09 387.02,673.79 387.03,672.32 C387.47,676.74 392.44,679.99 398.40,679.81 C398.11,679.85 397.81,679.89 397.50,679.93 C394.31,680.31 392.59,680.98 392.75,681.77 C392.89,682.44 392.44,683.01 391.75,683.02 C390.92,683.03 391.00,683.35 392.00,684.00 C392.32,684.21 392.69,684.38 393.10,684.51 C392.21,684.38 391.33,684.19 390.46,683.94 ZM 596.01 381.19 C597.69,382.95 599.43,384.82 601.24,386.83 C604.38,390.31 607.41,392.87 607.97,392.52 C608.87,391.96 609.48,393.98 609.11,396.26 C609.05,396.68 610.96,400.96 613.36,405.76 C613.40,405.84 613.44,405.91 613.48,405.98 C608.80,396.98 602.93,388.64 596.01,381.19 ZM 411.63 678.45 C411.98,678.77 412.16,679.54 412.26,680.78 C412.38,682.36 412.84,682.62 414.45,682.03 C416.37,681.32 416.52,680.35 416.76,666.39 C416.86,660.85 416.82,656.77 416.52,653.65 C416.89,657.01 417.00,661.51 417.00,667.75 L 417.00 684.00 L 414.50 684.00 C412.39,684.00 412.00,683.53 412.00,681.00 C412.00,679.71 411.90,678.86 411.63,678.45 ZM 439.98 676.85 C439.91,673.55 439.45,669.56 438.91,667.60 C438.19,665.01 438.15,663.00 438.80,661.60 C439.34,660.44 440.29,657.62 440.91,655.32 C441.14,654.47 441.41,653.69 441.72,652.96 C440.36,656.26 440.00,661.22 440.00,670.47 C440.00,673.06 440.00,675.15 439.98,676.85 ZM 504.27 652.91 C504.52,655.25 504.64,658.71 504.76,664.20 C504.37,660.91 503.46,659.60 502.11,660.43 C501.47,660.83 501.00,660.43 501.00,659.50 C501.00,658.61 501.45,658.16 502.00,658.50 C502.58,658.86 503.00,657.84 503.00,656.06 C503.00,654.38 503.44,653.00 503.98,653.00 C504.10,653.00 504.19,652.97 504.27,652.91 ZM 475.34 650.21 C473.32,652.05 473.17,653.15 473.05,667.72 L 473.18 652.02 L 475.44 650.13 C475.41,650.16 475.37,650.18 475.34,650.21 ZM 619.67 420.25 C624.22,432.70 626.23,444.71 626.24,458.50 C626.23,445.20 623.95,432.30 619.67,420.25 ZM 589.01 374.30 C581.19,367.24 572.30,361.22 562.50,356.49 C572.90,361.51 580.65,366.60 589.01,374.30 ZM 499.42 667.79 C499.58,660.83 499.12,655.82 497.99,652.40 C499.37,655.98 499.83,661.08 499.42,667.79 ZM 605.65 642.93 C603.05,641.50 599.40,641.01 593.71,641.00 C591.81,641.00 590.22,641.04 588.85,641.12 C595.13,640.48 602.58,641.06 605.58,642.89 ZM 580.93 662.08 C579.77,662.80 578.32,664.13 577.55,665.23 C576.39,666.88 575.84,671.08 576.07,673.72 C576.02,673.22 576.00,672.70 576.00,672.17 C576.00,667.04 577.31,663.89 580.93,662.08 ZM 382.13 666.69 C383.20,664.28 384.82,662.73 387.86,661.72 C385.15,662.87 383.08,664.61 382.13,666.69 ZM 355.66 683.92 C359.74,682.84 364.00,680.77 366.20,678.34 C363.76,681.03 359.82,682.99 355.66,683.92 ZM 400.34 684.35 C403.05,683.69 405.77,682.49 407.70,680.94 C405.83,682.61 403.23,683.78 400.34,684.35 ZM 365.62 658.65 C364.82,653.70 362.47,649.29 359.13,647.57 C362.69,649.41 364.92,653.76 365.62,658.65 ZM 334.98 666.74 C334.00,663.32 334.13,659.63 335.16,656.34 C334.18,659.65 334.14,663.33 334.98,666.74 ZM 610.42 648.46 C609.51,646.57 608.51,645.11 607.23,644.02 C608.68,645.16 609.70,646.49 610.42,648.46 ZM 501.19 645.83 C501.61,646.31 502.02,646.83 502.44,647.38 C503.00,648.13 503.41,648.84 503.73,649.88 C503.13,648.60 502.23,647.13 501.19,645.83 ZM 434.67 683.33 C434.62,683.29 434.58,683.11 434.54,682.81 C434.98,683.40 435.94,683.86 436.98,683.97 C435.93,683.89 434.97,683.63 434.67,683.33 ZM 442.60 651.26 C443.37,650.00 444.33,648.98 445.49,648.19 C444.29,649.13 443.34,650.09 442.60,651.26 ZM 475.32 577.58 C468.32,575.34 461.66,572.56 455.35,569.24 C461.64,572.55 468.29,575.33 475.32,577.58 ZM 511.82 550.48 C512.02,550.65 512.21,550.74 512.37,550.75 C512.21,550.87 512.02,550.76 511.82,550.48 ZM 361.05 675.28 C361.42,674.93 361.76,674.56 362.09,674.17 C361.96,674.32 361.84,674.47 361.71,674.62 C361.52,674.84 361.30,675.06 361.05,675.28 ZM 437.60 684.00 C438.05,684.00 438.42,683.98 438.72,683.92 C438.43,684.00 438.09,684.00 437.67,684.00 C437.64,684.00 437.62,684.00 437.60,684.00 ZM 381.56 668.32 C381.68,667.86 381.83,667.41 382.01,666.97 C381.83,667.41 381.68,667.86 381.56,668.32 ZM 512.43 396.00 C512.44,396.00 512.45,396.00 512.46,396.00 C512.47,396.00 512.47,396.00 512.47,396.00 C512.46,396.00 512.44,396.00 512.43,396.00 Z" fill="rgb(186,227,103)"/>
<path d="M 532.00 699.36 C528.43,698.21 521.00,694.60 521.00,694.02 C521.00,693.67 521.61,692.55 522.35,691.53 C523.66,689.74 523.88,689.76 528.60,692.09 C532.48,694.00 535.09,694.50 541.15,694.50 C549.38,694.50 551.79,693.32 554.46,688.00 C555.91,685.12 557.29,676.00 556.28,676.00 C555.91,676.00 553.97,677.13 551.97,678.52 C547.00,681.96 537.65,682.90 531.54,680.57 C517.79,675.32 513.69,657.31 523.80,646.66 C528.30,641.92 531.80,640.61 539.79,640.65 C546.34,640.67 547.55,641.00 551.57,643.84 C554.04,645.58 556.27,647.00 556.53,647.00 C556.79,647.00 557.00,645.65 557.00,644.00 C557.00,641.47 557.39,641.00 559.50,641.00 L 562.00 641.00 L 561.98 663.25 C561.95,690.86 560.88,694.23 550.75,698.46 C547.27,699.91 535.48,700.48 532.00,699.36 ZM 548.79 675.10 C555.87,671.46 558.66,662.53 555.17,654.66 C552.42,648.44 548.30,646.01 540.50,646.01 C529.97,646.01 524.59,651.09 524.53,661.08 C524.49,667.84 526.51,671.25 532.59,674.73 C537.45,677.51 543.81,677.65 548.79,675.10 ZM 346.69 683.95 C344.35,682.51 346.19,680.00 349.60,680.00 C353.14,680.00 359.48,677.18 361.71,674.62 C368.26,667.08 366.78,651.52 359.13,647.57 C354.77,645.31 345.30,645.52 341.30,647.96 C335.45,651.52 332.74,660.34 335.25,667.61 C336.44,671.06 336.45,672.03 335.34,673.55 C333.54,676.01 333.64,677.55 335.49,676.01 C336.31,675.33 336.73,674.37 336.43,673.89 C335.50,672.39 337.68,672.91 339.00,674.50 C340.17,675.91 339.94,676.13 337.46,675.96 C336.56,675.90 334.00,678.79 334.00,679.87 C334.00,681.49 332.02,682.26 330.70,681.16 C329.82,680.44 329.52,675.55 329.60,663.83 C329.67,654.85 329.80,646.83 329.90,646.00 C329.99,645.17 329.87,639.44 329.62,633.25 L 329.17 622.00 L 331.59 622.00 L 334.00 622.00 L 334.00 633.94 C334.00,640.51 334.38,646.12 334.85,646.41 C335.32,646.70 336.75,645.83 338.03,644.47 C343.92,638.20 360.16,638.88 366.20,645.64 C373.64,653.98 373.64,670.10 366.20,678.34 C362.03,682.95 350.48,686.27 346.69,683.95 ZM 392.00 684.00 C391.00,683.35 390.92,683.03 391.75,683.02 C392.44,683.01 392.89,682.44 392.75,681.77 C392.59,680.98 394.31,680.31 397.50,679.93 C407.16,678.77 410.68,675.81 411.73,667.98 C412.21,664.41 412.01,663.81 410.15,663.33 C408.98,663.02 408.27,662.37 408.57,661.89 C408.87,661.40 407.63,660.93 405.81,660.85 C403.01,660.72 403.19,660.61 407.00,660.10 C410.66,659.61 411.56,659.09 411.81,657.29 C412.27,654.05 409.29,648.45 406.40,647.14 C402.32,645.28 393.42,645.75 388.87,648.07 C384.97,650.06 384.77,650.07 383.44,648.32 C381.44,645.68 381.52,645.57 386.99,643.00 C393.61,639.90 405.09,639.71 410.12,642.62 C416.12,646.08 417.06,649.46 416.76,666.39 C416.52,680.35 416.37,681.32 414.45,682.03 C412.84,682.62 412.38,682.36 412.26,680.78 C412.02,677.64 411.22,677.51 408.55,680.18 C404.60,684.12 395.46,686.23 392.00,684.00 ZM 585.65 683.11 C583.72,681.83 583.24,681.07 584.15,680.73 C585.17,680.35 585.01,679.81 583.50,678.51 C581.59,676.87 581.62,676.86 584.21,678.39 C585.71,679.28 588.92,680.00 591.36,680.00 C596.28,680.00 598.32,682.22 595.03,683.98 C592.17,685.51 588.83,685.20 585.65,683.11 ZM 637.21 683.01 C630.92,680.15 630.00,677.18 630.00,659.61 C630.00,647.24 629.77,645.10 628.42,644.82 C627.04,644.54 627.07,644.26 628.67,642.59 C630.09,641.10 630.42,639.47 630.16,635.34 L 629.81 630.00 L 632.91 630.00 C635.94,630.00 636.00,630.09 636.00,634.89 C636.00,640.52 636.64,641.00 644.08,641.00 C648.33,641.00 649.00,641.27 649.00,643.00 C649.00,644.79 648.33,645.00 642.50,645.00 L 636.00 645.00 L 636.00 660.00 C636.00,673.96 636.15,675.15 638.13,677.13 C639.94,678.94 641.05,679.17 645.55,678.71 C649.71,678.28 650.97,678.48 651.43,679.67 C652.28,681.88 651.37,682.80 647.21,683.96 C642.37,685.30 642.23,685.29 637.21,683.01 ZM 675.76 683.91 C669.93,682.54 664.37,678.48 661.41,673.44 C657.53,666.81 657.47,657.28 661.28,650.78 C665.20,644.10 671.19,641.00 680.18,641.00 C684.17,641.00 688.24,641.59 689.80,642.40 C695.81,645.53 700.00,652.75 700.00,659.97 L 700.00 664.00 L 693.72 664.00 C688.68,664.00 687.11,663.61 685.73,662.00 C684.05,660.03 684.12,660.00 689.58,660.00 C694.88,660.00 695.10,659.90 694.44,657.75 C693.12,653.48 691.03,650.17 688.27,647.99 C685.90,646.13 684.52,645.86 678.78,646.19 C672.99,646.51 671.65,646.96 669.01,649.49 C666.13,652.25 663.79,657.57 664.71,659.25 C664.93,659.66 669.03,660.03 673.81,660.07 C679.59,660.12 681.83,660.43 680.50,661.00 C679.40,661.47 678.95,661.92 679.50,662.00 C682.53,662.43 675.56,663.87 670.18,663.93 C664.11,664.00 663.89,664.09 664.54,666.25 C666.87,674.04 671.72,678.15 679.36,678.78 C683.94,679.16 685.62,678.79 689.94,676.44 C694.77,673.81 695.17,673.74 696.77,675.34 C698.38,676.95 698.30,677.19 695.49,679.49 C690.51,683.56 682.18,685.42 675.76,683.91 ZM 434.36 682.49 C434.04,681.66 434.10,679.30 434.49,677.24 C434.89,675.18 435.14,668.40 435.05,662.16 C434.94,654.43 435.23,651.02 435.95,651.47 C436.61,651.88 437.00,650.80 437.00,648.56 C437.00,646.60 436.65,645.00 436.21,645.00 C435.78,645.00 435.36,644.10 435.27,643.00 C435.17,641.64 435.74,641.00 437.06,641.00 C438.45,641.00 439.00,641.69 439.00,643.44 C439.00,646.54 440.96,647.82 442.23,645.55 C443.67,642.99 450.88,640.05 455.78,640.02 C461.28,639.99 466.09,642.02 468.85,645.54 L 471.04 648.32 L 473.27 646.31 C476.67,643.25 478.86,642.25 476.66,644.76 C474.86,646.82 474.86,646.85 476.91,646.31 C478.84,645.81 479.46,644.78 479.09,642.68 C479.01,642.22 479.41,642.14 479.98,642.49 C481.38,643.35 479.51,646.70 475.96,649.68 L 473.18 652.02 L 473.05 667.72 C472.98,676.35 472.73,683.60 472.50,683.83 C472.28,684.05 470.95,683.95 469.55,683.60 L 467.00 682.96 L 467.00 668.05 L 467.00 653.14 L 463.63 649.57 C460.49,646.24 459.86,646.00 454.21,646.00 C446.74,646.00 442.65,648.87 440.91,655.32 C440.29,657.62 439.34,660.44 438.80,661.60 C438.15,663.00 438.19,665.01 438.91,667.60 C439.50,669.74 439.99,674.31 439.99,677.75 C440.00,683.77 439.91,684.00 437.47,684.00 C436.08,684.00 434.68,683.32 434.36,682.49 ZM 384.98 680.25 C381.33,676.96 380.13,671.51 382.05,666.89 C383.74,662.80 389.76,660.00 396.50,660.17 C399.38,660.25 400.33,660.48 398.73,660.72 C397.21,660.95 396.19,661.51 396.47,661.96 C396.75,662.41 395.30,663.55 393.24,664.50 C391.18,665.45 388.94,666.93 388.25,667.80 C386.76,669.69 386.59,674.63 387.99,675.50 C388.54,675.83 389.49,677.05 390.11,678.21 C391.05,679.96 390.98,680.21 389.68,679.71 C388.56,679.28 388.24,679.64 388.51,681.06 C389.00,683.61 388.61,683.52 384.98,680.25 ZM 598.50 681.00 C597.71,679.73 598.75,678.00 600.31,677.99 C602.73,677.98 606.15,671.37 605.82,667.34 C605.52,663.70 605.29,663.47 601.50,662.89 C599.30,662.56 597.95,662.17 598.50,662.02 C599.05,661.88 598.15,661.42 596.50,661.00 C594.11,660.39 594.78,660.21 599.75,660.12 L 606.00 660.00 L 605.98 655.75 C605.97,650.97 605.54,650.09 602.03,647.69 C598.46,645.25 588.56,645.42 583.46,648.02 C579.75,649.91 579.42,649.93 578.25,648.33 C576.37,645.76 576.65,645.22 580.96,643.02 C584.05,641.45 586.86,641.00 593.71,641.00 C604.05,641.01 607.65,642.63 610.45,648.54 C612.81,653.52 612.17,671.18 609.39,677.93 C607.75,681.89 607.50,682.11 607.00,680.00 C606.25,676.81 604.76,676.53 601.90,679.04 C600.58,680.20 600.06,680.87 600.75,680.52 C601.44,680.17 602.00,680.36 602.00,680.94 C602.00,682.28 599.32,682.33 598.50,681.00 ZM 499.33 679.41 C498.99,678.54 499.01,673.68 499.36,668.61 C500.44,653.31 497.15,646.09 489.03,645.93 C485.12,645.85 480.01,644.20 483.28,644.07 C484.26,644.03 485.32,643.34 485.62,642.54 C487.06,638.80 495.84,640.12 500.23,644.73 C503.19,647.83 505.53,653.00 503.98,653.00 C503.44,653.00 503.00,654.38 503.00,656.06 C503.00,657.84 502.58,658.86 502.00,658.50 C501.45,658.16 501.00,658.61 501.00,659.50 C501.00,660.43 501.47,660.83 502.11,660.43 C503.96,659.29 504.97,662.17 504.98,668.62 C505.01,677.55 504.13,681.00 501.84,681.00 C500.80,681.00 499.66,680.28 499.33,679.41 ZM 577.60 676.83 C577.89,676.38 577.64,676.00 577.06,676.00 C575.43,676.00 575.81,667.72 577.55,665.23 C578.40,664.01 580.09,662.50 581.30,661.87 C582.51,661.24 583.17,661.08 582.77,661.52 C582.36,661.95 582.76,662.84 583.66,663.49 C585.14,664.58 585.09,664.96 583.05,667.72 C581.81,669.39 580.74,671.89 580.65,673.28 C580.57,674.67 580.09,675.55 579.58,675.24 C579.07,674.93 578.92,675.35 579.23,676.17 C579.57,677.05 579.25,677.67 578.45,677.67 C577.70,677.67 577.32,677.29 577.60,676.83 ZM 488.50 581.07 C464.95,576.05 444.91,565.62 428.35,549.77 C420.77,542.50 409.00,529.02 409.00,527.60 C409.00,527.32 407.84,525.39 406.43,523.30 C403.00,518.25 397.70,506.96 394.64,498.19 C389.98,484.87 388.59,475.74 388.61,458.50 C388.61,444.44 388.94,441.23 391.30,432.00 C397.98,405.87 408.72,386.94 426.68,369.65 C445.65,351.39 464.47,341.61 490.41,336.52 C504.25,333.81 530.15,334.76 543.00,338.46 C559.56,343.22 575.05,350.19 581.40,355.72 C582.80,356.94 585.67,359.03 587.77,360.36 C594.17,364.40 606.36,377.22 613.41,387.34 C639.28,424.45 643.41,470.08 624.62,511.32 C613.23,536.29 589.44,559.98 563.59,572.06 C551.66,577.64 525.17,584.50 523.20,582.53 C522.81,582.15 522.38,534.17 522.24,475.92 L 521.97 370.00 L 526.99 370.00 L 532.00 370.00 L 532.00 470.50 L 532.00 571.00 L 534.95 571.00 C539.14,571.00 558.61,563.95 566.32,559.64 C603.84,538.66 626.26,500.81 626.24,458.50 C626.23,439.48 622.41,423.84 613.36,405.76 C610.96,400.96 609.05,396.68 609.11,396.26 C609.48,393.98 608.87,391.96 607.97,392.52 C607.41,392.87 604.38,390.31 601.24,386.83 C587.22,371.29 577.69,363.82 562.50,356.49 C542.87,347.01 530.47,344.48 507.50,345.28 C486.74,346.00 470.96,350.47 454.50,360.28 C450.65,362.57 447.27,364.48 447.00,364.51 C446.03,364.63 437.42,372.49 430.23,379.83 C394.48,416.32 388.10,472.76 414.60,518.11 C421.49,529.89 441.14,549.53 453.00,556.49 C457.67,559.23 461.73,561.71 462.00,562.00 C463.71,563.83 491.88,572.31 492.97,571.32 C493.23,571.09 493.33,525.69 493.20,470.45 L 492.95 370.00 L 497.98 370.00 L 503.00 370.00 L 503.00 428.61 C503.00,480.29 502.82,487.15 501.50,486.64 C500.29,486.17 500.03,486.96 500.15,490.78 C500.24,493.72 500.46,494.46 500.72,492.75 C500.95,491.24 501.55,490.00 502.07,490.00 C502.61,490.00 503.00,498.37 502.99,510.25 C502.99,532.22 502.21,544.25 500.86,543.41 C500.39,543.12 500.00,544.51 500.00,546.50 C500.00,548.66 500.40,549.87 501.00,549.50 C501.65,549.10 501.97,554.72 501.92,565.69 C501.88,574.94 501.62,581.95 501.35,581.28 C500.96,580.33 500.36,580.36 498.68,581.42 C496.82,582.58 495.33,582.53 488.50,581.07 ZM 511.68 550.35 C510.67,549.34 510.85,538.00 511.88,538.00 C512.36,538.00 512.98,540.59 513.26,543.75 C513.75,549.26 513.14,551.81 511.68,550.35 ZM 506.00 509.42 C506.00,490.19 506.27,484.92 507.25,485.25 C509.71,486.07 509.38,534.00 506.91,534.00 C506.39,534.00 506.00,523.61 506.00,509.42 ZM 511.08 402.25 C511.02,397.33 511.32,396.00 512.50,396.00 C514.42,396.00 514.44,401.34 512.54,405.50 C511.19,408.43 511.16,408.36 511.08,402.25 Z" fill="rgb(192,239,102)"/>
</g>
</svg>